<?xml version="1.0" encoding="iso-8859-1"?>
<!-- Generator: Adobe Illustrator 19.0.0, SVG Export Plug-In . SVG Version: 6.00 Build 0)  -->
<svg version="1.1" id="Capa_1" xmlns="http://www.w3.org/2000/svg" xmlns:xlink="http://www.w3.org/1999/xlink" x="0px" y="0px"
	 viewBox="0 0 512.002 512.002" style="enable-background:new 0 0 512.002 512.002;" xml:space="preserve">
<path style="fill:#42A884;" d="M493.165,256.001l16.098-55.091c5.973-20.439,2.073-41.933-10.699-58.97
	c-12.772-17.038-32.309-26.81-53.603-26.81c-16.781,0-32.842,6.239-45.223,17.567l-82.112,75.133
	c-3.769,3.448-9.55,3.32-13.162-0.292c-3.612-3.612-3.74-9.393-0.292-13.162l75.133-82.113
	c11.328-12.381,17.567-28.441,17.567-45.222c0-21.294-9.772-40.831-26.81-53.603C353.025,0.666,331.53-3.235,311.092,2.74
	l-55.091,16.098L200.909,2.74c-20.438-5.973-41.932-2.073-58.97,10.698c-17.038,12.772-26.81,32.309-26.81,53.603
	c0,16.781,6.239,32.841,17.567,45.222l75.133,82.113c3.449,3.768,3.32,9.55-0.292,13.162c-3.613,3.612-9.394,3.74-13.162,0.292
	l-82.112-75.133C99.882,121.369,83.822,115.13,67.04,115.13c-21.294,0-40.831,9.772-53.603,26.81
	c-12.771,17.037-16.67,38.531-10.698,58.97l16.098,55.091L2.739,311.093c-5.973,20.439-2.073,41.933,10.699,58.97
	c12.772,17.038,32.309,26.81,53.603,26.81c16.781,0,32.842-6.239,45.223-17.568l82.112-75.133c3.768-3.449,9.55-3.32,13.162,0.292
	s3.74,9.393,0.292,13.162l-75.134,82.112c-11.328,12.381-17.567,28.441-17.567,45.223c0,21.294,9.772,40.831,26.81,53.603
	s38.531,16.673,58.971,10.699l55.091-16.099l55.092,16.098c6.281,1.835,12.659,2.739,18.98,2.739
	c14.246,0,28.188-4.59,39.991-13.437c17.038-12.772,26.81-32.309,26.81-53.603c0-16.781-6.239-32.841-17.567-45.223l-75.134-82.112
	c-3.448-3.768-3.32-9.55,0.292-13.162c3.612-3.611,9.393-3.74,13.162-0.292l82.112,75.133
	c12.381,11.328,28.441,17.568,45.223,17.568c21.294,0,40.831-9.772,53.603-26.81s16.671-38.532,10.699-58.97L493.165,256.001z"/>
<path style="fill:#48CC8D;" d="M256.001,18.838L200.909,2.74c-20.438-5.973-41.932-2.073-58.97,10.698
	c-17.038,12.772-26.81,32.309-26.81,53.603c0,16.781,6.239,32.841,17.567,45.222l75.133,82.113c3.449,3.768,3.32,9.55-0.292,13.162
	c-3.612,3.612-9.394,3.74-13.162,0.292l-82.112-75.133C99.882,121.369,83.822,115.13,67.04,115.13
	c-21.294,0-40.831,9.772-53.603,26.81c-12.771,17.037-16.67,38.531-10.698,58.97l16.098,55.091L2.739,311.093
	c-5.973,20.439-2.073,41.933,10.699,58.971s32.309,26.81,53.603,26.81c16.781,0,32.842-6.239,45.223-17.568l82.112-75.133
	c3.768-3.449,9.55-3.32,13.162,0.292s3.74,9.393,0.292,13.162l-75.134,82.112c-11.328,12.381-17.567,28.441-17.567,45.223
	c0,21.294,9.772,40.831,26.81,53.602c17.038,12.772,38.531,16.673,58.971,10.699l55.091-16.099V18.838z"/>
<g>
	<path style="fill:#3A9474;" d="M142.809,241.001h-31.342c-8.284,0-15,6.716-15,15c0,8.284,6.716,15,15,15h31.342
		c8.284,0,15-6.716,15-15C157.809,247.717,151.093,241.001,142.809,241.001z"/>
	<path style="fill:#3A9474;" d="M400.535,241.001h-31.342c-8.284,0-15,6.716-15,15c0,8.284,6.716,15,15,15h31.342
		c8.284,0,15-6.716,15-15C415.535,247.717,408.819,241.001,400.535,241.001z"/>
	<path style="fill:#3A9474;" d="M256.001,96.467c-8.284,0-15,6.716-15,15v31.342c0,8.284,6.716,15,15,15c8.284,0,15-6.716,15-15
		v-31.342C271.001,103.183,264.285,96.467,256.001,96.467z"/>
	<path style="fill:#3A9474;" d="M256.001,354.193c-8.284,0-15,6.716-15,15v31.342c0,8.284,6.716,15,15,15c8.284,0,15-6.716,15-15
		v-31.342C271.001,360.909,264.285,354.193,256.001,354.193z"/>
</g>
<g>
</g>
<g>
</g>
<g>
</g>
<g>
</g>
<g>
</g>
<g>
</g>
<g>
</g>
<g>
</g>
<g>
</g>
<g>
</g>
<g>
</g>
<g>
</g>
<g>
</g>
<g>
</g>
<g>
</g>
</svg>
